<?xml version="1.0" encoding="UTF-8"?>
<svg xmlns="http://www.w3.org/2000/svg" xmlns:xlink="http://www.w3.org/1999/xlink" width="87.95" height="99.71" viewBox="0 0 87.95 99.71">
<defs>
<g>
<g id="glyph-0-0">
<path d="M 1.34375 -3.484375 C 1.570312 -3.484375 1.765625 -3.453125 1.921875 -3.390625 C 2.085938 -3.328125 2.25 -3.222656 2.40625 -3.078125 L 2.140625 -2.796875 C 2.015625 -2.898438 1.890625 -2.972656 1.765625 -3.015625 C 1.640625 -3.066406 1.503906 -3.09375 1.359375 -3.09375 C 1.179688 -3.09375 1.035156 -3.050781 0.921875 -2.96875 C 0.804688 -2.882812 0.75 -2.765625 0.75 -2.609375 C 0.75 -2.503906 0.765625 -2.414062 0.796875 -2.34375 C 0.835938 -2.28125 0.910156 -2.222656 1.015625 -2.171875 C 1.128906 -2.117188 1.289062 -2.0625 1.5 -2 C 1.707031 -1.925781 1.882812 -1.851562 2.03125 -1.78125 C 2.175781 -1.707031 2.289062 -1.601562 2.375 -1.46875 C 2.46875 -1.332031 2.515625 -1.160156 2.515625 -0.953125 C 2.515625 -0.753906 2.460938 -0.578125 2.359375 -0.421875 C 2.265625 -0.273438 2.125 -0.15625 1.9375 -0.0625 C 1.757812 0.0195312 1.539062 0.0625 1.28125 0.0625 C 0.8125 0.0625 0.425781 -0.0820312 0.125 -0.375 L 0.390625 -0.671875 C 0.523438 -0.554688 0.660156 -0.46875 0.796875 -0.40625 C 0.941406 -0.351562 1.101562 -0.328125 1.28125 -0.328125 C 1.488281 -0.328125 1.660156 -0.378906 1.796875 -0.484375 C 1.941406 -0.585938 2.015625 -0.738281 2.015625 -0.9375 C 2.015625 -1.050781 1.992188 -1.144531 1.953125 -1.21875 C 1.910156 -1.289062 1.835938 -1.359375 1.734375 -1.421875 C 1.628906 -1.484375 1.476562 -1.539062 1.28125 -1.59375 C 0.925781 -1.707031 0.664062 -1.835938 0.5 -1.984375 C 0.34375 -2.128906 0.265625 -2.332031 0.265625 -2.59375 C 0.265625 -2.757812 0.304688 -2.910156 0.390625 -3.046875 C 0.484375 -3.179688 0.613281 -3.285156 0.78125 -3.359375 C 0.945312 -3.441406 1.132812 -3.484375 1.34375 -3.484375 Z M 1.34375 -3.484375 "/>
</g>
<g id="glyph-0-1">
<path d="M 0.921875 0 L 0.46875 0 L 0.46875 -2.625 L 0.921875 -2.625 Z M 0.703125 -3.875 C 0.796875 -3.875 0.867188 -3.84375 0.921875 -3.78125 C 0.984375 -3.726562 1.015625 -3.65625 1.015625 -3.5625 C 1.015625 -3.46875 0.984375 -3.390625 0.921875 -3.328125 C 0.867188 -3.273438 0.796875 -3.25 0.703125 -3.25 C 0.609375 -3.25 0.53125 -3.273438 0.46875 -3.328125 C 0.40625 -3.390625 0.375 -3.46875 0.375 -3.5625 C 0.375 -3.65625 0.40625 -3.726562 0.46875 -3.78125 C 0.53125 -3.84375 0.609375 -3.875 0.703125 -3.875 Z M 0.703125 -3.875 "/>
</g>
<g id="glyph-0-2">
<path d="M 1.703125 -2.671875 C 1.941406 -2.671875 2.128906 -2.597656 2.265625 -2.453125 C 2.398438 -2.316406 2.46875 -2.125 2.46875 -1.875 L 2.46875 0 L 2 0 L 2 -1.8125 C 2 -2 1.960938 -2.128906 1.890625 -2.203125 C 1.828125 -2.285156 1.726562 -2.328125 1.59375 -2.328125 C 1.457031 -2.328125 1.332031 -2.285156 1.21875 -2.203125 C 1.113281 -2.117188 1.015625 -2.003906 0.921875 -1.859375 L 0.921875 0 L 0.46875 0 L 0.46875 -2.625 L 0.859375 -2.625 L 0.90625 -2.234375 C 1 -2.367188 1.113281 -2.472656 1.25 -2.546875 C 1.382812 -2.628906 1.535156 -2.671875 1.703125 -2.671875 Z M 1.703125 -2.671875 "/>
</g>
<g id="glyph-0-3">
<path d="M 2.578125 -2.5 C 2.484375 -2.46875 2.375 -2.445312 2.25 -2.4375 C 2.132812 -2.425781 1.988281 -2.421875 1.8125 -2.421875 C 2.125 -2.285156 2.28125 -2.066406 2.28125 -1.765625 C 2.28125 -1.492188 2.191406 -1.273438 2.015625 -1.109375 C 1.835938 -0.953125 1.59375 -0.875 1.28125 -0.875 C 1.164062 -0.875 1.054688 -0.890625 0.953125 -0.921875 C 0.910156 -0.890625 0.875 -0.851562 0.84375 -0.8125 C 0.820312 -0.769531 0.8125 -0.722656 0.8125 -0.671875 C 0.8125 -0.535156 0.925781 -0.46875 1.15625 -0.46875 L 1.578125 -0.46875 C 1.753906 -0.46875 1.910156 -0.429688 2.046875 -0.359375 C 2.179688 -0.296875 2.285156 -0.210938 2.359375 -0.109375 C 2.429688 -0.00390625 2.46875 0.117188 2.46875 0.265625 C 2.46875 0.515625 2.363281 0.707031 2.15625 0.84375 C 1.945312 0.988281 1.644531 1.0625 1.25 1.0625 C 0.96875 1.0625 0.742188 1.03125 0.578125 0.96875 C 0.410156 0.914062 0.289062 0.828125 0.21875 0.703125 C 0.15625 0.585938 0.125 0.441406 0.125 0.265625 L 0.53125 0.265625 C 0.53125 0.367188 0.550781 0.453125 0.59375 0.515625 C 0.632812 0.578125 0.707031 0.625 0.8125 0.65625 C 0.914062 0.6875 1.0625 0.703125 1.25 0.703125 C 1.519531 0.703125 1.710938 0.664062 1.828125 0.59375 C 1.953125 0.53125 2.015625 0.429688 2.015625 0.296875 C 2.015625 0.171875 1.96875 0.078125 1.875 0.015625 C 1.78125 -0.046875 1.648438 -0.078125 1.484375 -0.078125 L 1.078125 -0.078125 C 0.847656 -0.078125 0.675781 -0.125 0.5625 -0.21875 C 0.445312 -0.3125 0.390625 -0.429688 0.390625 -0.578125 C 0.390625 -0.660156 0.414062 -0.738281 0.46875 -0.8125 C 0.519531 -0.894531 0.59375 -0.96875 0.6875 -1.03125 C 0.53125 -1.113281 0.414062 -1.210938 0.34375 -1.328125 C 0.28125 -1.453125 0.25 -1.597656 0.25 -1.765625 C 0.25 -1.941406 0.289062 -2.097656 0.375 -2.234375 C 0.457031 -2.367188 0.578125 -2.472656 0.734375 -2.546875 C 0.890625 -2.628906 1.0625 -2.671875 1.25 -2.671875 C 1.457031 -2.671875 1.628906 -2.679688 1.765625 -2.703125 C 1.910156 -2.722656 2.023438 -2.75 2.109375 -2.78125 C 2.203125 -2.8125 2.316406 -2.851562 2.453125 -2.90625 Z M 1.25 -2.34375 C 1.082031 -2.34375 0.945312 -2.289062 0.84375 -2.1875 C 0.75 -2.082031 0.703125 -1.941406 0.703125 -1.765625 C 0.703125 -1.585938 0.75 -1.441406 0.84375 -1.328125 C 0.945312 -1.222656 1.085938 -1.171875 1.265625 -1.171875 C 1.441406 -1.171875 1.578125 -1.222656 1.671875 -1.328125 C 1.765625 -1.429688 1.8125 -1.578125 1.8125 -1.765625 C 1.8125 -2.148438 1.625 -2.34375 1.25 -2.34375 Z M 1.25 -2.34375 "/>
</g>
<g id="glyph-0-4">
<path d="M 1 0.0625 C 0.820312 0.0625 0.6875 0.0078125 0.59375 -0.09375 C 0.5 -0.195312 0.453125 -0.335938 0.453125 -0.515625 L 0.453125 -3.671875 L 0.90625 -3.71875 L 0.90625 -0.53125 C 0.90625 -0.457031 0.914062 -0.398438 0.9375 -0.359375 C 0.96875 -0.328125 1.007812 -0.3125 1.0625 -0.3125 C 1.125 -0.3125 1.179688 -0.320312 1.234375 -0.34375 L 1.359375 -0.03125 C 1.242188 0.03125 1.125 0.0625 1 0.0625 Z M 1 0.0625 "/>
</g>
<g id="glyph-0-5">
<path d="M 2.453125 -1.390625 C 2.453125 -1.304688 2.445312 -1.226562 2.4375 -1.15625 L 0.765625 -1.15625 C 0.785156 -0.863281 0.859375 -0.648438 0.984375 -0.515625 C 1.109375 -0.378906 1.269531 -0.3125 1.46875 -0.3125 C 1.601562 -0.3125 1.722656 -0.328125 1.828125 -0.359375 C 1.929688 -0.398438 2.039062 -0.460938 2.15625 -0.546875 L 2.359375 -0.265625 C 2.078125 -0.046875 1.769531 0.0625 1.4375 0.0625 C 1.070312 0.0625 0.785156 -0.0546875 0.578125 -0.296875 C 0.378906 -0.535156 0.28125 -0.863281 0.28125 -1.28125 C 0.28125 -1.550781 0.320312 -1.789062 0.40625 -2 C 0.5 -2.21875 0.625 -2.382812 0.78125 -2.5 C 0.945312 -2.613281 1.144531 -2.671875 1.375 -2.671875 C 1.71875 -2.671875 1.984375 -2.554688 2.171875 -2.328125 C 2.359375 -2.109375 2.453125 -1.796875 2.453125 -1.390625 Z M 2 -1.515625 C 2 -1.773438 1.945312 -1.972656 1.84375 -2.109375 C 1.738281 -2.242188 1.582031 -2.3125 1.375 -2.3125 C 1 -2.3125 0.796875 -2.035156 0.765625 -1.484375 L 2 -1.484375 Z M 2 -1.515625 "/>
</g>
<g id="glyph-0-6">
<path d="M 1.671875 -2.671875 C 1.960938 -2.671875 2.195312 -2.550781 2.375 -2.3125 C 2.550781 -2.070312 2.640625 -1.738281 2.640625 -1.3125 C 2.640625 -1.039062 2.597656 -0.800781 2.515625 -0.59375 C 2.429688 -0.382812 2.3125 -0.222656 2.15625 -0.109375 C 2 0.00390625 1.816406 0.0625 1.609375 0.0625 C 1.335938 0.0625 1.109375 -0.0507812 0.921875 -0.28125 L 0.875 0 L 0.46875 0 L 0.46875 -3.671875 L 0.921875 -3.71875 L 0.921875 -2.296875 C 1.117188 -2.546875 1.367188 -2.671875 1.671875 -2.671875 Z M 1.5 -0.296875 C 1.707031 -0.296875 1.867188 -0.378906 1.984375 -0.546875 C 2.097656 -0.710938 2.15625 -0.96875 2.15625 -1.3125 C 2.15625 -1.664062 2.097656 -1.921875 1.984375 -2.078125 C 1.878906 -2.234375 1.734375 -2.3125 1.546875 -2.3125 C 1.304688 -2.3125 1.097656 -2.175781 0.921875 -1.90625 L 0.921875 -0.65625 C 0.992188 -0.539062 1.082031 -0.453125 1.1875 -0.390625 C 1.289062 -0.328125 1.394531 -0.296875 1.5 -0.296875 Z M 1.5 -0.296875 "/>
</g>
<g id="glyph-0-7">
<path d="M 2.421875 0 L 2.03125 0 L 2 -0.40625 C 1.894531 -0.238281 1.773438 -0.117188 1.640625 -0.046875 C 1.515625 0.0234375 1.359375 0.0625 1.171875 0.0625 C 0.941406 0.0625 0.765625 -0.00390625 0.640625 -0.140625 C 0.515625 -0.285156 0.453125 -0.484375 0.453125 -0.734375 L 0.453125 -2.625 L 0.90625 -2.625 L 0.90625 -0.796875 C 0.90625 -0.609375 0.9375 -0.476562 1 -0.40625 C 1.0625 -0.332031 1.164062 -0.296875 1.3125 -0.296875 C 1.5625 -0.296875 1.78125 -0.445312 1.96875 -0.75 L 1.96875 -2.625 L 2.421875 -2.625 Z M 2.421875 0 "/>
</g>
<g id="glyph-0-8">
<path d="M 1.796875 -0.125 C 1.617188 0 1.421875 0.0625 1.203125 0.0625 C 0.984375 0.0625 0.8125 0 0.6875 -0.125 C 0.5625 -0.257812 0.5 -0.445312 0.5 -0.6875 L 0.5 -2.265625 L 0.046875 -2.265625 L 0.046875 -2.625 L 0.5 -2.625 L 0.5 -3.203125 L 0.953125 -3.265625 L 0.953125 -2.625 L 1.578125 -2.625 L 1.53125 -2.265625 L 0.953125 -2.265625 L 0.953125 -0.703125 C 0.953125 -0.566406 0.976562 -0.46875 1.03125 -0.40625 C 1.082031 -0.34375 1.160156 -0.3125 1.265625 -0.3125 C 1.378906 -0.3125 1.5 -0.351562 1.625 -0.4375 Z M 1.796875 -0.125 "/>
</g>
<g id="glyph-0-9">
<path d="M 1.609375 -2.671875 C 1.703125 -2.671875 1.789062 -2.660156 1.875 -2.640625 L 1.78125 -2.203125 C 1.707031 -2.222656 1.632812 -2.234375 1.5625 -2.234375 C 1.394531 -2.234375 1.257812 -2.171875 1.15625 -2.046875 C 1.0625 -1.929688 0.984375 -1.75 0.921875 -1.5 L 0.921875 0 L 0.46875 0 L 0.46875 -2.625 L 0.859375 -2.625 L 0.90625 -2.09375 C 0.976562 -2.28125 1.070312 -2.421875 1.1875 -2.515625 C 1.3125 -2.617188 1.453125 -2.671875 1.609375 -2.671875 Z M 1.609375 -2.671875 "/>
</g>
<g id="glyph-0-10">
<path d="M 2.84375 -0.03125 C 2.71875 0.03125 2.585938 0.0625 2.453125 0.0625 C 2.285156 0.0625 2.15625 0.015625 2.0625 -0.078125 C 1.976562 -0.179688 1.9375 -0.328125 1.9375 -0.515625 L 1.9375 -3.28125 C 1.832031 -3.300781 1.734375 -3.316406 1.640625 -3.328125 C 1.554688 -3.347656 1.460938 -3.359375 1.359375 -3.359375 C 1.203125 -3.359375 1.085938 -3.328125 1.015625 -3.265625 C 0.953125 -3.210938 0.921875 -3.117188 0.921875 -2.984375 L 0.921875 -2.625 L 1.5625 -2.625 L 1.515625 -2.265625 L 0.921875 -2.265625 L 0.921875 0 L 0.46875 0 L 0.46875 -2.265625 L 0.046875 -2.265625 L 0.046875 -2.625 L 0.46875 -2.625 L 0.46875 -2.96875 C 0.46875 -3.195312 0.539062 -3.378906 0.6875 -3.515625 C 0.832031 -3.648438 1.046875 -3.71875 1.328125 -3.71875 C 1.441406 -3.71875 1.546875 -3.707031 1.640625 -3.6875 C 1.734375 -3.675781 1.832031 -3.65625 1.9375 -3.625 L 2.390625 -3.6875 L 2.390625 -0.53125 C 2.390625 -0.457031 2.398438 -0.398438 2.421875 -0.359375 C 2.453125 -0.328125 2.492188 -0.3125 2.546875 -0.3125 C 2.609375 -0.3125 2.664062 -0.320312 2.71875 -0.34375 Z M 2.84375 -0.03125 "/>
</g>
<g id="glyph-0-11">
<path d="M 1.515625 0.015625 C 1.410156 0.316406 1.265625 0.554688 1.078125 0.734375 C 0.898438 0.910156 0.640625 1.019531 0.296875 1.0625 L 0.25 0.703125 C 0.425781 0.671875 0.5625 0.625 0.65625 0.5625 C 0.757812 0.507812 0.84375 0.4375 0.90625 0.34375 C 0.96875 0.257812 1.023438 0.144531 1.078125 0 L 0.921875 0 L 0.046875 -2.625 L 0.53125 -2.625 L 1.234375 -0.328125 L 1.921875 -2.625 L 2.390625 -2.625 Z M 1.515625 0.015625 "/>
</g>
<g id="glyph-0-12">
<path d="M 1.671875 -2.671875 C 2.003906 -2.671875 2.25 -2.550781 2.40625 -2.3125 C 2.5625 -2.082031 2.640625 -1.75 2.640625 -1.3125 C 2.640625 -0.90625 2.550781 -0.570312 2.375 -0.3125 C 2.195312 -0.0625 1.941406 0.0625 1.609375 0.0625 C 1.316406 0.0625 1.085938 -0.0351562 0.921875 -0.234375 L 0.921875 1 L 0.46875 1.0625 L 0.46875 -2.625 L 0.859375 -2.625 L 0.90625 -2.265625 C 1 -2.398438 1.113281 -2.5 1.25 -2.5625 C 1.382812 -2.632812 1.523438 -2.671875 1.671875 -2.671875 Z M 1.5 -0.3125 C 1.9375 -0.3125 2.15625 -0.644531 2.15625 -1.3125 C 2.15625 -1.976562 1.957031 -2.3125 1.5625 -2.3125 C 1.425781 -2.3125 1.304688 -2.273438 1.203125 -2.203125 C 1.097656 -2.128906 1.003906 -2.03125 0.921875 -1.90625 L 0.921875 -0.625 C 0.992188 -0.53125 1.078125 -0.453125 1.171875 -0.390625 C 1.273438 -0.335938 1.382812 -0.3125 1.5 -0.3125 Z M 1.5 -0.3125 "/>
</g>
<g id="glyph-0-13">
<path d="M 2.234375 -0.609375 C 2.234375 -0.503906 2.25 -0.425781 2.28125 -0.375 C 2.320312 -0.320312 2.378906 -0.285156 2.453125 -0.265625 L 2.34375 0.0625 C 2.207031 0.0390625 2.097656 0.00390625 2.015625 -0.046875 C 1.929688 -0.109375 1.875 -0.203125 1.84375 -0.328125 C 1.664062 -0.0664062 1.40625 0.0625 1.0625 0.0625 C 0.800781 0.0625 0.59375 -0.0078125 0.4375 -0.15625 C 0.289062 -0.300781 0.21875 -0.492188 0.21875 -0.734375 C 0.21875 -1.003906 0.316406 -1.210938 0.515625 -1.359375 C 0.722656 -1.515625 1.007812 -1.59375 1.375 -1.59375 L 1.78125 -1.59375 L 1.78125 -1.78125 C 1.78125 -1.96875 1.734375 -2.101562 1.640625 -2.1875 C 1.554688 -2.269531 1.421875 -2.3125 1.234375 -2.3125 C 1.035156 -2.3125 0.800781 -2.265625 0.53125 -2.171875 L 0.40625 -2.5 C 0.738281 -2.613281 1.039062 -2.671875 1.3125 -2.671875 C 1.625 -2.671875 1.851562 -2.59375 2 -2.4375 C 2.15625 -2.289062 2.234375 -2.082031 2.234375 -1.8125 Z M 1.15625 -0.28125 C 1.425781 -0.28125 1.632812 -0.414062 1.78125 -0.6875 L 1.78125 -1.296875 L 1.4375 -1.296875 C 0.945312 -1.296875 0.703125 -1.113281 0.703125 -0.75 C 0.703125 -0.59375 0.738281 -0.472656 0.8125 -0.390625 C 0.894531 -0.316406 1.007812 -0.28125 1.15625 -0.28125 Z M 1.15625 -0.28125 "/>
</g>
<g id="glyph-0-14">
<path d="M 1.1875 -2.671875 C 1.363281 -2.671875 1.519531 -2.644531 1.65625 -2.59375 C 1.800781 -2.550781 1.941406 -2.476562 2.078125 -2.375 L 1.875 -2.09375 C 1.757812 -2.164062 1.644531 -2.21875 1.53125 -2.25 C 1.425781 -2.289062 1.316406 -2.3125 1.203125 -2.3125 C 1.046875 -2.3125 0.925781 -2.28125 0.84375 -2.21875 C 0.757812 -2.15625 0.71875 -2.070312 0.71875 -1.96875 C 0.71875 -1.863281 0.753906 -1.78125 0.828125 -1.71875 C 0.910156 -1.664062 1.0625 -1.609375 1.28125 -1.546875 C 1.570312 -1.472656 1.785156 -1.375 1.921875 -1.25 C 2.066406 -1.125 2.140625 -0.953125 2.140625 -0.734375 C 2.140625 -0.472656 2.039062 -0.273438 1.84375 -0.140625 C 1.644531 -0.00390625 1.398438 0.0625 1.109375 0.0625 C 0.710938 0.0625 0.382812 -0.0507812 0.125 -0.28125 L 0.375 -0.5625 C 0.59375 -0.394531 0.835938 -0.3125 1.109375 -0.3125 C 1.273438 -0.3125 1.410156 -0.34375 1.515625 -0.40625 C 1.617188 -0.476562 1.671875 -0.578125 1.671875 -0.703125 C 1.671875 -0.796875 1.648438 -0.867188 1.609375 -0.921875 C 1.578125 -0.972656 1.515625 -1.019531 1.421875 -1.0625 C 1.328125 -1.101562 1.195312 -1.148438 1.03125 -1.203125 C 0.75 -1.273438 0.546875 -1.367188 0.421875 -1.484375 C 0.296875 -1.609375 0.234375 -1.765625 0.234375 -1.953125 C 0.234375 -2.085938 0.273438 -2.210938 0.359375 -2.328125 C 0.441406 -2.441406 0.554688 -2.523438 0.703125 -2.578125 C 0.847656 -2.640625 1.007812 -2.671875 1.1875 -2.671875 Z M 1.1875 -2.671875 "/>
</g>
<g id="glyph-0-15">
<path d="M 0.296875 -1.75 L 1.703125 -1.75 L 1.703125 -1.359375 L 0.296875 -1.359375 Z M 0.296875 -1.75 "/>
</g>
<g id="glyph-0-16">
<path d="M 1.703125 -2.671875 C 1.941406 -2.671875 2.128906 -2.597656 2.265625 -2.453125 C 2.398438 -2.316406 2.46875 -2.125 2.46875 -1.875 L 2.46875 0 L 2 0 L 2 -1.8125 C 2 -2 1.960938 -2.128906 1.890625 -2.203125 C 1.828125 -2.285156 1.726562 -2.328125 1.59375 -2.328125 C 1.457031 -2.328125 1.332031 -2.285156 1.21875 -2.203125 C 1.113281 -2.117188 1.015625 -2.003906 0.921875 -1.859375 L 0.921875 0 L 0.46875 0 L 0.46875 -3.671875 L 0.921875 -3.71875 L 0.921875 -2.25 C 1.128906 -2.53125 1.390625 -2.671875 1.703125 -2.671875 Z M 1.703125 -2.671875 "/>
</g>
<g id="glyph-0-17">
<path d="M 1.453125 -2.671875 C 1.816406 -2.671875 2.101562 -2.546875 2.3125 -2.296875 C 2.519531 -2.054688 2.625 -1.726562 2.625 -1.3125 C 2.625 -1.039062 2.578125 -0.800781 2.484375 -0.59375 C 2.390625 -0.382812 2.253906 -0.222656 2.078125 -0.109375 C 1.898438 0.00390625 1.691406 0.0625 1.453125 0.0625 C 1.085938 0.0625 0.800781 -0.0546875 0.59375 -0.296875 C 0.382812 -0.546875 0.28125 -0.882812 0.28125 -1.3125 C 0.28125 -1.582031 0.328125 -1.816406 0.421875 -2.015625 C 0.515625 -2.222656 0.648438 -2.382812 0.828125 -2.5 C 1.003906 -2.613281 1.210938 -2.671875 1.453125 -2.671875 Z M 1.453125 -2.3125 C 1.003906 -2.3125 0.78125 -1.976562 0.78125 -1.3125 C 0.78125 -0.644531 1.003906 -0.3125 1.453125 -0.3125 C 1.898438 -0.3125 2.125 -0.644531 2.125 -1.3125 C 2.125 -1.976562 1.898438 -2.3125 1.453125 -2.3125 Z M 1.453125 -2.3125 "/>
</g>
<g id="glyph-0-18">
<path d="M 1.40625 -4 C 1.238281 -3.738281 1.101562 -3.507812 1 -3.3125 C 0.894531 -3.113281 0.8125 -2.882812 0.75 -2.625 C 0.695312 -2.375 0.671875 -2.078125 0.671875 -1.734375 C 0.671875 -1.398438 0.695312 -1.101562 0.75 -0.84375 C 0.8125 -0.59375 0.894531 -0.363281 1 -0.15625 C 1.101562 0.0390625 1.238281 0.265625 1.40625 0.515625 L 1.125 0.71875 C 0.90625 0.40625 0.734375 0.148438 0.609375 -0.046875 C 0.492188 -0.242188 0.394531 -0.484375 0.3125 -0.765625 C 0.238281 -1.046875 0.203125 -1.367188 0.203125 -1.734375 C 0.203125 -2.109375 0.238281 -2.429688 0.3125 -2.703125 C 0.394531 -2.984375 0.492188 -3.222656 0.609375 -3.421875 C 0.734375 -3.628906 0.90625 -3.890625 1.125 -4.203125 Z M 1.40625 -4 "/>
</g>
<g id="glyph-0-19">
<path d="M 2.859375 0 L 2.25 0 L 1.78125 -2.203125 L 1.3125 0 L 0.703125 0 L 0.09375 -2.625 L 0.5625 -2.625 L 1.03125 -0.3125 L 1.546875 -2.625 L 2.0625 -2.625 L 2.546875 -0.3125 L 3.03125 -2.625 L 3.46875 -2.625 Z M 2.859375 0 "/>
</g>
<g id="glyph-0-20">
<path d="M 2.5 -3.671875 L 2.5 0 L 2.09375 0 L 2.046875 -0.359375 C 1.960938 -0.222656 1.851562 -0.117188 1.71875 -0.046875 C 1.59375 0.0234375 1.453125 0.0625 1.296875 0.0625 C 0.984375 0.0625 0.738281 -0.0546875 0.5625 -0.296875 C 0.394531 -0.546875 0.3125 -0.878906 0.3125 -1.296875 C 0.3125 -1.566406 0.351562 -1.804688 0.4375 -2.015625 C 0.519531 -2.222656 0.640625 -2.382812 0.796875 -2.5 C 0.953125 -2.613281 1.132812 -2.671875 1.34375 -2.671875 C 1.601562 -2.671875 1.835938 -2.566406 2.046875 -2.359375 L 2.046875 -3.71875 Z M 1.390625 -0.296875 C 1.535156 -0.296875 1.65625 -0.328125 1.75 -0.390625 C 1.851562 -0.460938 1.953125 -0.5625 2.046875 -0.6875 L 2.046875 -1.96875 C 1.953125 -2.082031 1.859375 -2.164062 1.765625 -2.21875 C 1.671875 -2.28125 1.5625 -2.3125 1.4375 -2.3125 C 1.238281 -2.3125 1.082031 -2.226562 0.96875 -2.0625 C 0.851562 -1.894531 0.796875 -1.644531 0.796875 -1.3125 C 0.796875 -0.96875 0.847656 -0.710938 0.953125 -0.546875 C 1.054688 -0.378906 1.203125 -0.296875 1.390625 -0.296875 Z M 1.390625 -0.296875 "/>
</g>
<g id="glyph-0-21">
<path d="M 0.484375 -4.203125 C 0.703125 -3.890625 0.867188 -3.628906 0.984375 -3.421875 C 1.109375 -3.222656 1.207031 -2.984375 1.28125 -2.703125 C 1.363281 -2.429688 1.40625 -2.109375 1.40625 -1.734375 C 1.40625 -1.367188 1.363281 -1.046875 1.28125 -0.765625 C 1.207031 -0.484375 1.109375 -0.242188 0.984375 -0.046875 C 0.867188 0.148438 0.703125 0.40625 0.484375 0.71875 L 0.203125 0.515625 C 0.367188 0.265625 0.503906 0.0390625 0.609375 -0.15625 C 0.710938 -0.363281 0.789062 -0.59375 0.84375 -0.84375 C 0.90625 -1.101562 0.9375 -1.398438 0.9375 -1.734375 C 0.9375 -2.078125 0.90625 -2.375 0.84375 -2.625 C 0.789062 -2.882812 0.710938 -3.113281 0.609375 -3.3125 C 0.503906 -3.507812 0.367188 -3.738281 0.203125 -4 Z M 0.484375 -4.203125 "/>
</g>
<g id="glyph-1-0">
<path d="M 5.25 0 L 4.28125 0 L 3.28125 -4.59375 L 2.265625 0 L 1.3125 0 L 0.203125 -5.484375 L 0.9375 -5.484375 L 1.828125 -0.65625 L 2.875 -5.484375 L 3.6875 -5.484375 L 4.765625 -0.65625 L 5.671875 -5.484375 L 6.375 -5.484375 Z M 5.25 0 "/>
</g>
<g id="glyph-2-0">
<path d="M 1.15625 0 L 0.578125 0 L 0.578125 -4.546875 L 1.15625 -4.609375 Z M 1.828125 -1.8125 L 3.15625 0 L 2.46875 0 L 1.1875 -1.765625 L 2.375 -3.25 L 3.015625 -3.25 Z M 1.828125 -1.8125 "/>
</g>
<g id="glyph-2-1">
<path d="M 3.59375 0 L 2.8125 0 L 1.078125 -3.59375 C 1.109375 -3.3125 1.128906 -3.050781 1.140625 -2.8125 C 1.148438 -2.570312 1.15625 -2.285156 1.15625 -1.953125 L 1.15625 0 L 0.609375 0 L 0.609375 -4.234375 L 1.375 -4.234375 L 3.125 -0.640625 C 3.113281 -0.742188 3.097656 -0.925781 3.078125 -1.1875 C 3.054688 -1.457031 3.046875 -1.703125 3.046875 -1.921875 L 3.046875 -4.234375 L 3.59375 -4.234375 Z M 3.59375 0 "/>
</g>
<g id="glyph-3-0">
<path d="M 2.46875 -0.671875 C 2.46875 -0.554688 2.484375 -0.46875 2.515625 -0.40625 C 2.554688 -0.351562 2.617188 -0.3125 2.703125 -0.28125 L 2.59375 0.0625 C 2.4375 0.0390625 2.3125 0 2.21875 -0.0625 C 2.132812 -0.125 2.070312 -0.222656 2.03125 -0.359375 C 1.832031 -0.078125 1.546875 0.0625 1.171875 0.0625 C 0.878906 0.0625 0.648438 -0.015625 0.484375 -0.171875 C 0.328125 -0.335938 0.25 -0.546875 0.25 -0.796875 C 0.25 -1.109375 0.359375 -1.34375 0.578125 -1.5 C 0.796875 -1.664062 1.109375 -1.75 1.515625 -1.75 L 1.953125 -1.75 L 1.953125 -1.96875 C 1.953125 -2.175781 1.898438 -2.320312 1.796875 -2.40625 C 1.703125 -2.488281 1.554688 -2.53125 1.359375 -2.53125 C 1.148438 -2.53125 0.890625 -2.484375 0.578125 -2.390625 L 0.453125 -2.75 C 0.804688 -2.882812 1.140625 -2.953125 1.453125 -2.953125 C 1.785156 -2.953125 2.035156 -2.867188 2.203125 -2.703125 C 2.378906 -2.535156 2.46875 -2.296875 2.46875 -1.984375 Z M 1.28125 -0.3125 C 1.570312 -0.3125 1.796875 -0.460938 1.953125 -0.765625 L 1.953125 -1.421875 L 1.578125 -1.421875 C 1.046875 -1.421875 0.78125 -1.222656 0.78125 -0.828125 C 0.78125 -0.660156 0.820312 -0.53125 0.90625 -0.4375 C 0.988281 -0.351562 1.113281 -0.3125 1.28125 -0.3125 Z M 1.28125 -0.3125 "/>
</g>
<g id="glyph-3-1">
<path d="M 1.84375 -2.953125 C 2.164062 -2.953125 2.421875 -2.816406 2.609375 -2.546875 C 2.804688 -2.285156 2.90625 -1.914062 2.90625 -1.4375 C 2.90625 -1.144531 2.859375 -0.882812 2.765625 -0.65625 C 2.679688 -0.425781 2.550781 -0.25 2.375 -0.125 C 2.207031 0 2.007812 0.0625 1.78125 0.0625 C 1.476562 0.0625 1.222656 -0.0625 1.015625 -0.3125 L 0.96875 0 L 0.515625 0 L 0.515625 -4.046875 L 1.015625 -4.109375 L 1.015625 -2.515625 C 1.222656 -2.804688 1.5 -2.953125 1.84375 -2.953125 Z M 1.65625 -0.328125 C 1.875 -0.328125 2.046875 -0.414062 2.171875 -0.59375 C 2.304688 -0.78125 2.375 -1.0625 2.375 -1.4375 C 2.375 -1.832031 2.3125 -2.113281 2.1875 -2.28125 C 2.070312 -2.457031 1.910156 -2.546875 1.703125 -2.546875 C 1.441406 -2.546875 1.210938 -2.394531 1.015625 -2.09375 L 1.015625 -0.71875 C 1.097656 -0.601562 1.191406 -0.507812 1.296875 -0.4375 C 1.410156 -0.363281 1.53125 -0.328125 1.65625 -0.328125 Z M 1.65625 -0.328125 "/>
</g>
<g id="glyph-3-2">
<path d="M 3.609375 0 L 2.953125 0 L 2.25 -3.15625 L 1.546875 0 L 0.90625 0 L 0.140625 -3.765625 L 0.640625 -3.765625 L 1.25 -0.453125 L 1.984375 -3.765625 L 2.53125 -3.765625 L 3.28125 -0.453125 L 3.90625 -3.765625 L 4.375 -3.765625 Z M 3.609375 0 "/>
</g>
<g id="glyph-3-3">
<path d="M 1.015625 0 L 0.515625 0 L 0.515625 -4.046875 L 1.015625 -4.109375 Z M 1.625 -1.609375 L 2.796875 0 L 2.203125 0 L 1.0625 -1.578125 L 2.109375 -2.875 L 2.6875 -2.875 Z M 1.625 -1.609375 "/>
</g>
<g id="glyph-3-4">
<path d="M 3.1875 0 L 2.5 0 L 0.96875 -3.203125 C 0.988281 -2.953125 1.003906 -2.71875 1.015625 -2.5 C 1.023438 -2.289062 1.03125 -2.035156 1.03125 -1.734375 L 1.03125 0 L 0.546875 0 L 0.546875 -3.765625 L 1.21875 -3.765625 L 2.765625 -0.5625 C 2.753906 -0.65625 2.738281 -0.820312 2.71875 -1.0625 C 2.707031 -1.300781 2.703125 -1.519531 2.703125 -1.71875 L 2.703125 -3.765625 L 3.1875 -3.765625 Z M 3.1875 0 "/>
</g>
<g id="glyph-3-5">
<path d="M 0.171875 -1.921875 L 2.671875 -1.921875 L 2.671875 -1.5 L 0.171875 -1.5 Z M 0.171875 -1.921875 "/>
</g>
<g id="glyph-4-0">
<path d="M 2.6875 -1.109375 L 4.421875 -1.109375 C 4.484375 -1.109375 4.625 -1.109375 4.625 -1.234375 C 4.625 -1.375 4.484375 -1.375 4.421875 -1.375 L 2.6875 -1.375 L 2.6875 -3.109375 C 2.6875 -3.1875 2.6875 -3.3125 2.546875 -3.3125 C 2.421875 -3.3125 2.421875 -3.1875 2.421875 -3.109375 L 2.421875 -1.375 L 0.6875 -1.375 C 0.609375 -1.375 0.484375 -1.375 0.484375 -1.234375 C 0.484375 -1.109375 0.609375 -1.109375 0.6875 -1.109375 L 2.421875 -1.109375 L 2.421875 0.625 C 2.421875 0.703125 2.421875 0.828125 2.546875 0.828125 C 2.6875 0.828125 2.6875 0.703125 2.6875 0.625 Z M 2.6875 -1.109375 "/>
</g>
<g id="glyph-5-0">
<path d="M 3.171875 -0.1875 L 1.953125 -1.40625 L 3.171875 -2.625 L 2.953125 -2.84375 L 1.734375 -1.625 L 0.53125 -2.84375 L 0.3125 -2.625 L 1.515625 -1.40625 L 0.3125 -0.1875 L 0.53125 0.03125 L 1.734375 -1.1875 L 2.953125 0.03125 Z M 3.171875 -0.1875 "/>
</g>
</g>
<clipPath id="clip-0">
<path clip-rule="nonzero" d="M 0.101562 8 L 30 8 L 30 38 L 0.101562 38 Z M 0.101562 8 "/>
</clipPath>
<clipPath id="clip-1">
<path clip-rule="nonzero" d="M 0.101562 39 L 30 39 L 30 70 L 0.101562 70 Z M 0.101562 39 "/>
</clipPath>
<clipPath id="clip-2">
<path clip-rule="nonzero" d="M 17 78 L 45 78 L 45 99.421875 L 17 99.421875 Z M 17 78 "/>
</clipPath>
</defs>
<path fill-rule="nonzero" fill="rgb(100%, 94.898987%, 0%)" fill-opacity="1" d="M 50.898438 0.5 L 17.757812 0.5 C 15.5625 0.5 13.78125 2.277344 13.78125 4.472656 L 13.78125 8.078125 C 13.78125 10.273438 15.5625 12.050781 17.757812 12.050781 L 50.898438 12.050781 C 53.089844 12.050781 54.871094 10.273438 54.871094 8.078125 L 54.871094 4.472656 C 54.871094 2.277344 53.089844 0.5 50.898438 0.5 Z M 50.898438 0.5 "/>
<g fill="rgb(0%, 0%, 0%)" fill-opacity="1">
<use xlink:href="#glyph-0-0" x="17.094181" y="7.683653"/>
<use xlink:href="#glyph-0-1" x="19.801117" y="7.683653"/>
<use xlink:href="#glyph-0-2" x="21.20177" y="7.683653"/>
<use xlink:href="#glyph-0-3" x="24.112346" y="7.683653"/>
<use xlink:href="#glyph-0-4" x="26.69511" y="7.683653"/>
</g>
<g fill="rgb(0%, 0%, 0%)" fill-opacity="1">
<use xlink:href="#glyph-0-5" x="28.10073" y="7.683653"/>
</g>
<g fill="rgb(0%, 0%, 0%)" fill-opacity="1">
<use xlink:href="#glyph-0-6" x="32.143749" y="7.683653"/>
<use xlink:href="#glyph-0-7" x="35.094061" y="7.683653"/>
<use xlink:href="#glyph-0-8" x="37.98477" y="7.683653"/>
<use xlink:href="#glyph-0-8" x="39.777804" y="7.683653"/>
</g>
<g fill="rgb(0%, 0%, 0%)" fill-opacity="1">
<use xlink:href="#glyph-0-5" x="41.526137" y="7.683653"/>
<use xlink:href="#glyph-0-9" x="44.257907" y="7.683653"/>
<use xlink:href="#glyph-0-10" x="46.175113" y="7.683653"/>
<use xlink:href="#glyph-0-11" x="49.11549" y="7.683653"/>
</g>
<path fill-rule="nonzero" fill="rgb(100%, 100%, 100%)" fill-opacity="1" d="M 18.019531 23.234375 C 18.019531 21.3125 16.460938 19.757812 14.542969 19.757812 C 12.621094 19.757812 11.066406 21.3125 11.066406 23.234375 C 11.066406 25.15625 12.621094 26.710938 14.542969 26.710938 C 16.460938 26.710938 18.019531 25.15625 18.019531 23.234375 Z M 18.019531 23.234375 "/>
<g clip-path="url(#clip-0)">
<path fill="none" stroke-width="0.79701" stroke-linecap="butt" stroke-linejoin="miter" stroke="rgb(0.782776%, 50.193787%, 56.469727%)" stroke-opacity="1" stroke-miterlimit="10" d="M 3.488041 0.0000493431 C 3.488041 1.927514 1.924915 3.486723 0.00136762 3.486723 C -1.926097 3.486723 -3.485306 1.927514 -3.485306 0.0000493431 C -3.485306 -1.927415 -1.926097 -3.486625 0.00136762 -3.486625 C 1.924915 -3.486625 3.488041 -1.927415 3.488041 0.0000493431 Z M 3.488041 0.0000493431 " transform="matrix(0.9971, 0, 0, -0.9971, 14.541605, 23.234424)"/>
</g>
<path fill-rule="nonzero" fill="rgb(100%, 100%, 100%)" fill-opacity="1" d="M 18.019531 54.324219 C 18.019531 52.40625 16.460938 50.847656 14.542969 50.847656 C 12.621094 50.847656 11.066406 52.40625 11.066406 54.324219 C 11.066406 56.246094 12.621094 57.800781 14.542969 57.800781 C 16.460938 57.800781 18.019531 56.246094 18.019531 54.324219 Z M 18.019531 54.324219 "/>
<g clip-path="url(#clip-1)">
<path fill="none" stroke-width="0.79701" stroke-linecap="butt" stroke-linejoin="miter" stroke="rgb(0.782776%, 50.193787%, 56.469727%)" stroke-opacity="1" stroke-miterlimit="10" d="M 3.488041 -31.180217 C 3.488041 -29.25667 1.924915 -27.693543 0.00136762 -27.693543 C -1.926097 -27.693543 -3.485306 -29.25667 -3.485306 -31.180217 C -3.485306 -33.107682 -1.926097 -34.666891 0.00136762 -34.666891 C 1.924915 -34.666891 3.488041 -33.107682 3.488041 -31.180217 Z M 3.488041 -31.180217 " transform="matrix(0.9971, 0, 0, -0.9971, 14.541605, 23.234424)"/>
</g>
<path fill-rule="nonzero" fill="rgb(100%, 100%, 100%)" fill-opacity="1" stroke-width="0.79701" stroke-linecap="butt" stroke-linejoin="miter" stroke="rgb(0.782776%, 50.193787%, 56.469727%)" stroke-opacity="1" stroke-miterlimit="10" d="M 43.173442 0.0000493431 C 43.173442 1.927514 41.610315 3.486723 39.686768 3.486723 C 37.759303 3.486723 36.200094 1.927514 36.200094 0.0000493431 C 36.200094 -1.927415 37.759303 -3.486625 39.686768 -3.486625 C 41.610315 -3.486625 43.173442 -1.927415 43.173442 0.0000493431 Z M 43.173442 0.0000493431 " transform="matrix(0.9971, 0, 0, -0.9971, 14.541605, 23.234424)"/>
<path fill-rule="nonzero" fill="rgb(100%, 100%, 100%)" fill-opacity="1" stroke-width="0.79701" stroke-linecap="butt" stroke-linejoin="miter" stroke="rgb(0.782776%, 50.193787%, 56.469727%)" stroke-opacity="1" stroke-miterlimit="10" d="M 43.173442 -31.180217 C 43.173442 -29.25667 41.610315 -27.693543 39.686768 -27.693543 C 37.759303 -27.693543 36.200094 -29.25667 36.200094 -31.180217 C 36.200094 -33.107682 37.759303 -34.666891 39.686768 -34.666891 C 41.610315 -34.666891 43.173442 -33.107682 43.173442 -31.180217 Z M 43.173442 -31.180217 " transform="matrix(0.9971, 0, 0, -0.9971, 14.541605, 23.234424)"/>
<path fill="none" stroke-width="0.3985" stroke-linecap="butt" stroke-linejoin="miter" stroke="rgb(5.099487%, 10.598755%, 16.499329%)" stroke-opacity="1" stroke-miterlimit="10" d="M 3.88372 0.0000493431 L 32.736926 0.0000493431 " transform="matrix(0.9971, 0, 0, -0.9971, 14.541605, 23.234424)"/>
<path fill-rule="nonzero" fill="rgb(5.099487%, 10.598755%, 16.499329%)" fill-opacity="1" stroke-width="0.3985" stroke-linecap="butt" stroke-linejoin="miter" stroke="rgb(5.099487%, 10.598755%, 16.499329%)" stroke-opacity="1" stroke-miterlimit="10" d="M 4.214664 0.0000493431 L 0.641803 1.34379 L 1.817086 0.0000493431 L 0.641803 -1.347609 Z M 4.214664 0.0000493431 " transform="matrix(0.9971, 0, 0, -0.9971, 45.469434, 23.234424)"/>
<path fill="none" stroke-width="0.3985" stroke-linecap="butt" stroke-linejoin="miter" stroke="rgb(5.099487%, 10.598755%, 16.499329%)" stroke-opacity="1" stroke-miterlimit="10" d="M 3.88372 -31.180217 L 32.736926 -31.180217 " transform="matrix(0.9971, 0, 0, -0.9971, 14.541605, 23.234424)"/>
<path fill-rule="nonzero" fill="rgb(5.099487%, 10.598755%, 16.499329%)" fill-opacity="1" stroke-width="0.3985" stroke-linecap="butt" stroke-linejoin="miter" stroke="rgb(5.099487%, 10.598755%, 16.499329%)" stroke-opacity="1" stroke-miterlimit="10" d="M 4.214664 0.00144282 L 0.641803 1.345183 L 1.817086 0.00144282 L 0.641803 -1.346215 Z M 4.214664 0.00144282 " transform="matrix(0.9971, 0, 0, -0.9971, 45.469434, 54.325657)"/>
<path fill="none" stroke-width="0.3985" stroke-linecap="butt" stroke-linejoin="miter" stroke="rgb(70.599365%, 23.498535%, 23.498535%)" stroke-opacity="1" stroke-miterlimit="10" d="M 3.053187 -2.401446 L 34.2217 -26.886515 " transform="matrix(0.9971, 0, 0, -0.9971, 14.541605, 23.234424)"/>
<path fill-rule="nonzero" fill="rgb(70.599365%, 23.498535%, 23.498535%)" fill-opacity="1" stroke-width="0.3985" stroke-linecap="butt" stroke-linejoin="miter" stroke="rgb(70.599365%, 23.498535%, 23.498535%)" stroke-opacity="1" stroke-miterlimit="10" d="M 4.21451 0.000674096 L 0.642555 1.344473 L 1.817804 0.000892792 L 0.643436 -1.34533 Z M 4.21451 0.000674096 " transform="matrix(0.78401, 0.616008, 0.616008, -0.78401, 47.316462, 48.986386)"/>
<path fill="none" stroke-width="0.3985" stroke-linecap="butt" stroke-linejoin="miter" stroke="rgb(70.599365%, 23.498535%, 23.498535%)" stroke-opacity="1" stroke-miterlimit="10" d="M 3.053187 -28.782639 L 34.2217 -4.293652 " transform="matrix(0.9971, 0, 0, -0.9971, 14.541605, 23.234424)"/>
<path fill-rule="nonzero" fill="rgb(70.599365%, 23.498535%, 23.498535%)" fill-opacity="1" stroke-width="0.3985" stroke-linecap="butt" stroke-linejoin="miter" stroke="rgb(70.599365%, 23.498535%, 23.498535%)" stroke-opacity="1" stroke-miterlimit="10" d="M 4.21542 0.000483534 L 0.644346 1.346487 L 1.818713 0.000264837 L 0.643464 -1.343316 Z M 4.21542 0.000483534 " transform="matrix(0.78401, -0.616008, -0.616008, -0.78401, 47.316462, 28.573675)"/>
<path fill-rule="nonzero" fill="rgb(100%, 100%, 100%)" fill-opacity="1" d="M 26.707031 46.089844 L 41.949219 46.089844 L 41.949219 31.472656 L 26.707031 31.472656 Z M 26.707031 46.089844 "/>
<g fill="rgb(70.599365%, 23.498535%, 23.498535%)" fill-opacity="1">
<use xlink:href="#glyph-1-0" x="28.692448" y="41.176242"/>
</g>
<g fill="rgb(70.599365%, 23.498535%, 23.498535%)" fill-opacity="1">
<use xlink:href="#glyph-2-0" x="35.256358" y="38.078252"/>
</g>
<g fill="rgb(70.599365%, 23.498535%, 23.498535%)" fill-opacity="1">
<use xlink:href="#glyph-2-1" x="35.256358" y="44.101733"/>
</g>
<g fill="rgb(0%, 0%, 0%)" fill-opacity="1">
<use xlink:href="#glyph-3-0" x="4.185724" y="24.674237"/>
</g>
<g fill="rgb(0%, 0%, 0%)" fill-opacity="1">
<use xlink:href="#glyph-3-1" x="3.912519" y="56.342133"/>
</g>
<g fill="rgb(0%, 0%, 0%)" fill-opacity="1">
<use xlink:href="#glyph-3-0" x="61.496041" y="24.771952"/>
</g>
<g fill="rgb(0%, 0%, 0%)" fill-opacity="1">
<use xlink:href="#glyph-4-0" x="65.681867" y="24.771952"/>
</g>
<g fill="rgb(0%, 0%, 0%)" fill-opacity="1">
<use xlink:href="#glyph-3-2" x="72.00049" y="24.771952"/>
</g>
<g fill="rgb(0%, 0%, 0%)" fill-opacity="1">
<use xlink:href="#glyph-3-3" x="76.513364" y="22.788721"/>
</g>
<g fill="rgb(0%, 0%, 0%)" fill-opacity="1">
<use xlink:href="#glyph-3-4" x="76.513364" y="27.776215"/>
</g>
<g fill="rgb(0%, 0%, 0%)" fill-opacity="1">
<use xlink:href="#glyph-3-1" x="80.742065" y="24.771952"/>
</g>
<g fill="rgb(0%, 0%, 0%)" fill-opacity="1">
<use xlink:href="#glyph-3-0" x="61.496041" y="55.863525"/>
</g>
<g fill="rgb(0%, 0%, 0%)" fill-opacity="1">
<use xlink:href="#glyph-3-5" x="65.681166" y="55.863525"/>
</g>
<g fill="rgb(0%, 0%, 0%)" fill-opacity="1">
<use xlink:href="#glyph-3-2" x="69.735164" y="55.863525"/>
</g>
<g fill="rgb(0%, 0%, 0%)" fill-opacity="1">
<use xlink:href="#glyph-3-3" x="74.249947" y="53.880293"/>
</g>
<g fill="rgb(0%, 0%, 0%)" fill-opacity="1">
<use xlink:href="#glyph-3-4" x="74.249947" y="58.867787"/>
</g>
<g fill="rgb(0%, 0%, 0%)" fill-opacity="1">
<use xlink:href="#glyph-3-1" x="78.478648" y="55.863525"/>
</g>
<path fill="none" stroke-width="0.79701" stroke-linecap="butt" stroke-linejoin="miter" stroke="rgb(5.099487%, 10.598755%, 16.499329%)" stroke-opacity="1" stroke-miterlimit="10" d="M 0.00136762 -51.022917 L 15.730576 -51.022917 " transform="matrix(0.9971, 0, 0, -0.9971, 14.541605, 23.234424)"/>
<path fill-rule="nonzero" fill="rgb(5.099487%, 10.598755%, 16.499329%)" fill-opacity="1" stroke-width="0.79701" stroke-linecap="butt" stroke-linejoin="miter" stroke="rgb(5.099487%, 10.598755%, 16.499329%)" stroke-opacity="1" stroke-miterlimit="10" d="M 5.44073 0.00143274 L 1.288063 1.572395 L 2.663144 0.00143274 L 1.288063 -1.569529 Z M 5.44073 0.00143274 " transform="matrix(0.9971, 0, 0, -0.9971, 27.77036, 74.110804)"/>
<g fill="rgb(5.099487%, 10.598755%, 16.499329%)" fill-opacity="1">
<use xlink:href="#glyph-0-12" x="38.035275" y="75.439589"/>
<use xlink:href="#glyph-0-13" x="40.985587" y="75.439589"/>
<use xlink:href="#glyph-0-14" x="43.687555" y="75.439589"/>
<use xlink:href="#glyph-0-14" x="46.007076" y="75.439589"/>
<use xlink:href="#glyph-0-15" x="48.326597" y="75.439589"/>
<use xlink:href="#glyph-0-8" x="50.32824" y="75.439589"/>
<use xlink:href="#glyph-0-16" x="52.121274" y="75.439589"/>
<use xlink:href="#glyph-0-9" x="55.03185" y="75.439589"/>
</g>
<g fill="rgb(5.099487%, 10.598755%, 16.499329%)" fill-opacity="1">
<use xlink:href="#glyph-0-17" x="56.899388" y="75.439589"/>
<use xlink:href="#glyph-0-7" x="59.800031" y="75.439589"/>
<use xlink:href="#glyph-0-3" x="62.69074" y="75.439589"/>
<use xlink:href="#glyph-0-16" x="65.273504" y="75.439589"/>
</g>
<path fill="none" stroke-width="0.79701" stroke-linecap="butt" stroke-linejoin="miter" stroke="rgb(70.599365%, 23.498535%, 23.498535%)" stroke-opacity="1" stroke-miterlimit="10" d="M 0.00136762 -68.033185 L 15.730576 -68.033185 " transform="matrix(0.9971, 0, 0, -0.9971, 14.541605, 23.234424)"/>
<path fill-rule="nonzero" fill="rgb(70.599365%, 23.498535%, 23.498535%)" fill-opacity="1" d="M 33.195312 91.070312 L 29.054688 89.503906 L 30.425781 91.070312 L 29.054688 92.636719 Z M 33.195312 91.070312 "/>
<g clip-path="url(#clip-2)">
<path fill="none" stroke-width="0.79701" stroke-linecap="butt" stroke-linejoin="miter" stroke="rgb(70.599365%, 23.498535%, 23.498535%)" stroke-opacity="1" stroke-miterlimit="10" d="M 5.44073 -0.000574535 L 1.288063 1.570388 L 2.663144 -0.000574535 L 1.288063 -1.571537 Z M 5.44073 -0.000574535 " transform="matrix(0.9971, 0, 0, -0.9971, 27.77036, 91.06974)"/>
</g>
<g fill="rgb(70.599365%, 23.498535%, 23.498535%)" fill-opacity="1">
<use xlink:href="#glyph-5-0" x="38.25364" y="92.607657"/>
</g>
<g fill="rgb(70.599365%, 23.498535%, 23.498535%)" fill-opacity="1">
<use xlink:href="#glyph-3-2" x="41.946899" y="92.607657"/>
</g>
<g fill="rgb(70.599365%, 23.498535%, 23.498535%)" fill-opacity="1">
<use xlink:href="#glyph-3-3" x="46.459773" y="90.624425"/>
</g>
<g fill="rgb(70.599365%, 23.498535%, 23.498535%)" fill-opacity="1">
<use xlink:href="#glyph-3-4" x="46.459773" y="95.611919"/>
</g>
<g fill="rgb(70.599365%, 23.498535%, 23.498535%)" fill-opacity="1">
<use xlink:href="#glyph-0-18" x="52.003649" y="92.607657"/>
<use xlink:href="#glyph-0-8" x="53.61291" y="92.607657"/>
<use xlink:href="#glyph-0-19" x="55.405944" y="92.607657"/>
<use xlink:href="#glyph-0-1" x="58.967179" y="92.607657"/>
<use xlink:href="#glyph-0-20" x="60.367832" y="92.607657"/>
<use xlink:href="#glyph-0-20" x="63.338011" y="92.607657"/>
<use xlink:href="#glyph-0-4" x="66.308189" y="92.607657"/>
</g>
<g fill="rgb(70.599365%, 23.498535%, 23.498535%)" fill-opacity="1">
<use xlink:href="#glyph-0-5" x="67.718776" y="92.607657"/>
<use xlink:href="#glyph-0-21" x="70.450546" y="92.607657"/>
</g>
</svg>
